<svg width="155" height="40" viewBox="0 0 155 40" fill="none" xmlns="http://www.w3.org/2000/svg">
<path d="M4.18018 15.7899C5.13018 13.8099 6.00017 12.0199 6.84017 10.2099C7.25017 9.31994 8.00017 9.34994 8.77017 9.35994C11.2002 9.35994 13.6302 9.33994 16.0602 9.36994C18.1802 9.38994 20.2902 9.38994 22.4102 8.43994C20.4002 14.2499 14.5902 16.5899 4.18018 15.7899Z" fill="#0088EA"/>
<path d="M0 24.18C1.04 22.04 1.96 20.21 2.82 18.34C3.19 17.53 3.8 17.5 4.52 17.51C6.88 17.54 9.23 17.55 11.59 17.56C13.84 17.56 16.13 17.84 18.45 16.49C16.62 20.99 12 24.19 7.75 24.19C5.28 24.18 2.81 24.18 0 24.18Z" fill="#0088EA"/>
<path d="M8.02002 7.81998C10.43 3.70998 13.37 1.20999 17.97 1.16999C20.72 1.13999 23.5 1.49999 26.31 0.609985C24.33 3.48999 22.28 6.41998 18.8 7.40998C15.46 8.36998 11.91 7.60998 8.02002 7.81998Z" fill="#0088EA"/>
<path d="M37.5401 8.39999C36.5901 10.38 35.7201 12.17 34.8801 13.98C34.4701 14.87 33.7201 14.84 32.9501 14.83C30.5201 14.83 28.0901 14.85 25.6601 14.82C23.5401 14.8 21.4301 14.8 19.3101 15.75C21.3201 9.93999 27.1301 7.59999 37.5401 8.39999Z" fill="#0088EA"/>
<path d="M41.72 0.0100021C40.68 2.15 39.76 3.98 38.9 5.85C38.53 6.66 37.92 6.69 37.2 6.68C34.84 6.65 32.49 6.64 30.13 6.63C27.88 6.63 25.59 6.35 23.27 7.7C25.1 3.2 29.72 0 33.97 0C36.44 0.01 38.91 0.0100021 41.72 0.0100021Z" fill="#0088EA"/>
<path d="M33.7001 16.36C31.2901 20.47 28.3502 22.97 23.7502 23.01C21.0002 23.04 18.2202 22.68 15.4102 23.57C17.3902 20.69 19.4402 17.76 22.9202 16.77C26.2602 15.82 29.8101 16.57 33.7001 16.36Z" fill="#0088EA"/>
<path d="M71.3602 19.91C71.3602 21.09 70.9502 22.09 70.1202 22.92C69.2802 23.76 68.2702 24.18 67.1002 24.18H50.7402C49.5602 24.18 48.5602 23.76 47.7302 22.92C46.8902 22.09 46.4702 21.09 46.4702 19.91V16.34H52.1602V18.48H65.6602V14.93L49.5602 14.91L49.2502 14.84C48.4302 14.66 47.7702 14.25 47.2502 13.6C46.7302 12.95 46.4702 12.21 46.4702 11.36V4.26C46.4702 3.08 46.8902 2.07 47.7302 1.24C48.5602 0.410002 49.5602 0 50.7402 0H67.1002C68.2802 0 69.2902 0.410002 70.1202 1.24C70.9502 2.08 71.3602 3.09 71.3602 4.26V7.81H65.6702V5.7H52.1702V9.23L68.2702 9.25L68.5802 9.32C69.4102 9.5 70.0702 9.91001 70.5802 10.56C71.1002 11.21 71.3602 11.95 71.3602 12.79V19.91Z" fill="#0088EA"/>
<path d="M99.6099 0.0100098H75.4399V5.70001H99.6099V0.0100098Z" fill="#0088EA"/>
<path d="M99.6099 9.25H83.4199V14.94H99.6099V9.25Z" fill="#0088EA"/>
<path d="M99.6099 18.49H75.4399V24.18H99.6099V18.49Z" fill="#0088EA"/>
<path d="M103.69 0.0100098V24.17H109.38V0.0100098H103.69Z" fill="#0088EA"/>
<path d="M128.57 9.24001C128.57 10.26 128.31 11.21 127.8 12.08C128.31 12.96 128.57 13.92 128.57 14.93V18.48C128.57 20.05 128.02 21.4 126.9 22.51C125.79 23.62 124.45 24.17 122.88 24.17H109.38V18.48H122.88V14.93H109.38V9.24001H122.88V5.70001H109.38V0.0100098H122.88C124.45 0.0100098 125.8 0.56001 126.9 1.67001C128.01 2.78001 128.57 4.12001 128.57 5.70001V9.24001Z" fill="#0088EA"/>
<path d="M138.33 0.0100098V18.49H154.69V24.18H132.64V0.0100098H138.33Z" fill="#0088EA"/>
<path d="M1.98994 34.45C2.18994 35.33 2.80994 35.74 3.84994 35.74C4.91994 35.74 5.35994 35.29 5.35994 34.63C5.35994 33.91 4.95994 33.56 3.46994 33.21C1.32994 32.71 0.729942 31.95 0.729942 30.83C0.729942 29.48 1.74994 28.5 3.65994 28.5C5.76994 28.5 6.61994 29.65 6.73994 30.81H5.17994C5.06994 30.23 4.72994 29.67 3.61994 29.67C2.79994 29.67 2.31994 30.02 2.31994 30.67C2.31994 31.31 2.70994 31.56 4.07994 31.88C6.45994 32.44 6.94994 33.34 6.94994 34.45C6.94994 35.88 5.85994 36.91 3.73994 36.91C1.64994 36.91 0.619941 35.85 0.439941 34.44H1.98994V34.45Z" fill="#0088EA"/>
<path d="M13.97 33.17H9.96996V35.53H14.37L14.18 36.8H8.45996V28.62H14.14V29.9H9.95996V31.9H13.96V33.17H13.97Z" fill="#0088EA"/>
<path d="M23.1998 32.68C23.1998 34.95 21.8598 36.92 19.2098 36.92C16.6798 36.92 15.3198 35.06 15.3198 32.71C15.3198 30.34 16.7798 28.5 19.3098 28.5C21.6998 28.51 23.1998 30.2 23.1998 32.68ZM16.9298 32.68C16.9298 34.33 17.7098 35.66 19.2698 35.66C20.9698 35.66 21.5998 34.26 21.5998 32.7C21.5998 31.08 20.8798 29.77 19.2498 29.77C17.6398 29.77 16.9298 31.03 16.9298 32.68Z" fill="#0088EA"/>
<path d="M33.24 33.17H29.24V35.53H33.64L33.45 36.8H27.73V28.62H33.41V29.9H29.23V31.9H33.23V33.17H33.24Z" fill="#0088EA"/>
<path d="M35.67 30.72C36.38 31.93 36.68 32.43 36.88 32.75H36.89C37.12 32.37 37.54 31.66 38.11 30.72H39.76L37.74 33.62L39.76 36.8H38.08C37.46 35.72 37.06 35 36.86 34.64H36.85C36.67 34.97 36.23 35.76 35.63 36.8H34L35.95 33.81L34.03 30.72H35.67Z" fill="#0088EA"/>
<path d="M42.0298 36.1901V39.1501H40.5598V32.2001C40.5598 31.7101 40.5598 31.2101 40.5498 30.7301H41.9898C42.0098 30.9001 42.0398 31.2801 42.0398 31.5501C42.3298 31.0501 42.8998 30.5801 43.8998 30.5801C45.2898 30.5801 46.3398 31.7301 46.3398 33.6101C46.3398 35.7601 45.1498 36.9401 43.6698 36.9401C42.7498 36.9401 42.2798 36.5901 42.0298 36.1901ZM44.8198 33.6701C44.8198 32.5001 44.3198 31.7801 43.4298 31.7801C42.3598 31.7801 41.9698 32.4601 41.9698 33.7601C41.9698 35.0101 42.3198 35.7501 43.3598 35.7501C44.3298 35.7601 44.8198 34.9901 44.8198 33.6701Z" fill="#0088EA"/>
<path d="M52.4699 35.3101C52.4699 35.8801 52.5199 36.6401 52.5499 36.8001H51.1299C51.0799 36.6701 51.0499 36.3601 51.0399 36.1401C50.8199 36.5001 50.3799 36.9401 49.2599 36.9401C47.7899 36.9401 47.1699 35.9901 47.1699 35.0501C47.1699 33.6701 48.2699 33.0401 50.0799 33.0401C50.4199 33.0401 50.7999 33.0401 51.0099 33.0401V32.6201C51.0099 32.1501 50.8499 31.6501 49.9399 31.6501C49.1199 31.6501 48.9599 32.0201 48.8699 32.4701H47.4599C47.5499 31.4701 48.1699 30.5701 49.9999 30.5701C51.5899 30.5801 52.4599 31.2001 52.4599 32.6301V35.3101H52.4699ZM51.0299 33.9701C50.8699 33.9701 50.4999 33.9701 50.2399 33.9701C49.1499 33.9701 48.6799 34.2901 48.6799 34.9701C48.6799 35.4701 49.0099 35.8801 49.6699 35.8801C50.8799 35.8801 51.0399 35.0501 51.0399 34.1501V33.9701H51.0299Z" fill="#0088EA"/>
<path d="M53.4497 30.72H54.4297V29.02H55.9097V30.72H57.1597V31.85H55.9097V35.04C55.9097 35.54 56.0497 35.77 56.5797 35.77C56.6897 35.77 56.8797 35.77 57.0197 35.74V36.77C56.7097 36.88 56.2797 36.88 55.9497 36.88C54.8397 36.88 54.4297 36.29 54.4297 35.25V31.85H53.4497V30.72Z" fill="#0088EA"/>
<path d="M59.3701 34.0701C59.3701 34.9901 59.8401 35.7801 60.7501 35.7801C61.5401 35.7801 61.7801 35.4301 61.9601 35.0301H63.4501C63.2201 35.7901 62.5601 36.9501 60.7201 36.9501C58.7301 36.9501 57.8901 35.4301 57.8901 33.8501C57.8901 31.9801 58.8501 30.5901 60.7801 30.5901C62.8401 30.5901 63.5301 32.1201 63.5301 33.5601C63.5301 33.7601 63.5301 33.9001 63.5101 34.0701H59.3701ZM62.0301 33.1301C62.0201 32.3201 61.6601 31.6601 60.7601 31.6601C59.8601 31.6601 59.4801 32.2801 59.4001 33.1301H62.0301Z" fill="#0088EA"/>
<path d="M67.8799 28.62H71.3299C73.2399 28.62 74.0099 29.61 74.0099 30.7C74.0099 31.63 73.4999 32.24 72.9199 32.48C73.4799 32.68 74.2599 33.26 74.2599 34.38C74.2599 35.83 73.1299 36.81 71.4399 36.81H67.8799V28.62ZM71.1299 31.91C72.0999 31.91 72.4899 31.5 72.4899 30.85C72.4899 30.21 72.0099 29.83 71.2299 29.83H69.4099V31.91H71.1299ZM69.3999 35.6H71.1499C72.1399 35.6 72.6699 35.17 72.6699 34.34C72.6699 33.6 72.1899 33.12 71.0699 33.12H69.3899V35.6H69.3999Z" fill="#0088EA"/>
<path d="M80.5099 35.3101C80.5099 35.8801 80.56 36.6401 80.59 36.8001H79.17C79.12 36.6701 79.09 36.3601 79.08 36.1401C78.86 36.5001 78.42 36.9401 77.3 36.9401C75.83 36.9401 75.21 35.9901 75.21 35.0501C75.21 33.6701 76.3099 33.0401 78.1199 33.0401C78.4599 33.0401 78.84 33.0401 79.05 33.0401V32.6201C79.05 32.1501 78.89 31.6501 77.9799 31.6501C77.16 31.6501 77 32.0201 76.91 32.4701H75.5C75.59 31.4701 76.2099 30.5701 78.0399 30.5701C79.6299 30.5801 80.5 31.2001 80.5 32.6301V35.3101H80.5099ZM79.06 33.9701C78.9 33.9701 78.53 33.9701 78.27 33.9701C77.18 33.9701 76.71 34.2901 76.71 34.9701C76.71 35.4701 77.04 35.8801 77.7 35.8801C78.91 35.8801 79.07 35.0501 79.07 34.1501V33.9701H79.06Z" fill="#0088EA"/>
<path d="M82.1501 32.2601C82.1501 31.7401 82.1501 31.1801 82.1401 30.7301H83.5801C83.6101 30.8901 83.6301 31.3901 83.6401 31.5801C83.8601 31.1501 84.3601 30.5901 85.4701 30.5901C86.6701 30.5901 87.5101 31.3701 87.5101 32.9301V36.8101H86.0301V33.1001C86.0301 32.3401 85.7601 31.8001 84.9501 31.8001C84.0801 31.8001 83.6501 32.3601 83.6501 33.4801V36.8101H82.1701V32.2601H82.1501Z" fill="#0088EA"/>
<path d="M94.4997 36.1301C94.4997 38.0801 93.7497 39.2701 91.5297 39.2701C89.4197 39.2701 88.9397 38.1001 88.8597 37.3701H90.3697C90.5097 37.8701 90.8997 38.1801 91.5897 38.1801C92.7897 38.1801 93.0397 37.4401 93.0397 36.1801V35.8201C92.7197 36.4001 92.1897 36.7501 91.2497 36.7501C89.6697 36.7501 88.7197 35.4701 88.7197 33.7901C88.7197 31.8601 89.8697 30.5901 91.3897 30.5901C92.4797 30.5901 92.9397 31.1001 93.0497 31.4201C93.0597 31.2201 93.0997 30.8401 93.1097 30.7301H94.5097C94.4997 31.2101 94.4897 31.8901 94.4897 32.4801V36.1301H94.4997ZM90.2597 33.7101C90.2597 34.8401 90.8397 35.5401 91.6697 35.5401C92.7897 35.5401 93.0997 34.7801 93.0997 33.6501C93.0997 32.5101 92.8597 31.7701 91.6997 31.7701C90.8297 31.7801 90.2597 32.4701 90.2597 33.7101Z" fill="#0088EA"/>
<path d="M96.1001 36.8V28.15H97.5801V36.8H96.1001Z" fill="#0088EA"/>
<path d="M104.11 35.3101C104.11 35.8801 104.16 36.6401 104.19 36.8001H102.77C102.72 36.6701 102.69 36.3601 102.68 36.1401C102.46 36.5001 102.02 36.9401 100.9 36.9401C99.4301 36.9401 98.8101 35.9901 98.8101 35.0501C98.8101 33.6701 99.9101 33.0401 101.72 33.0401C102.06 33.0401 102.44 33.0401 102.65 33.0401V32.6201C102.65 32.1501 102.49 31.6501 101.58 31.6501C100.76 31.6501 100.6 32.0201 100.51 32.4701H99.1001C99.1901 31.4701 99.8101 30.5701 101.64 30.5701C103.23 30.5801 104.1 31.2001 104.1 32.6301V35.3101H104.11ZM102.66 33.9701C102.5 33.9701 102.13 33.9701 101.87 33.9701C100.78 33.9701 100.31 34.2901 100.31 34.9701C100.31 35.4701 100.64 35.8801 101.3 35.8801C102.51 35.8801 102.67 35.0501 102.67 34.1501V33.9701H102.66Z" fill="#0088EA"/>
<path d="M111.19 28.15V35.11C111.19 35.67 111.19 36.23 111.2 36.8H109.78C109.75 36.62 109.72 36.26 109.71 36.09C109.41 36.62 108.85 36.94 107.91 36.94C106.35 36.94 105.37 35.69 105.37 33.81C105.37 31.94 106.42 30.57 108.14 30.57C109.09 30.57 109.57 30.92 109.71 31.22V28.15H111.19ZM106.9 33.78C106.9 35.06 107.45 35.75 108.32 35.75C109.58 35.75 109.77 34.76 109.77 33.73C109.77 32.59 109.58 31.78 108.38 31.78C107.42 31.78 106.9 32.52 106.9 33.78Z" fill="#0088EA"/>
<path d="M113.9 34.0701C113.9 34.9901 114.37 35.7801 115.28 35.7801C116.07 35.7801 116.31 35.4301 116.49 35.0301H117.98C117.75 35.7901 117.09 36.9501 115.25 36.9501C113.26 36.9501 112.42 35.4301 112.42 33.8501C112.42 31.9801 113.38 30.5901 115.31 30.5901C117.37 30.5901 118.06 32.1201 118.06 33.5601C118.06 33.7601 118.06 33.9001 118.04 34.0701H113.9ZM116.57 33.1301C116.56 32.3201 116.2 31.6601 115.3 31.6601C114.4 31.6601 114.02 32.2801 113.94 33.1301H116.57Z" fill="#0088EA"/>
<path d="M120.28 35.0001C120.42 35.5401 120.86 35.8601 121.55 35.8601C122.27 35.8601 122.54 35.5801 122.54 35.1501C122.54 34.7001 122.27 34.5101 121.3 34.2701C119.39 33.8001 119.05 33.2201 119.05 32.3701C119.05 31.4901 119.69 30.5701 121.44 30.5701C123.2 30.5701 123.84 31.5401 123.9 32.3801H122.49C122.42 32.1001 122.22 31.6301 121.38 31.6301C120.72 31.6301 120.51 31.9301 120.51 32.2501C120.51 32.6001 120.72 32.7801 121.76 33.0201C123.74 33.4801 124.06 34.1501 124.06 35.0401C124.06 36.0701 123.26 36.9401 121.51 36.9401C119.74 36.9401 118.97 36.0801 118.83 35.0001H120.28Z" fill="#0088EA"/>
<path d="M126.73 28.15V31.5C127.01 31.06 127.53 30.58 128.54 30.58C129.63 30.58 130.6 31.2 130.6 32.91V36.8H129.13V33.13C129.13 32.26 128.79 31.79 128.02 31.79C127.02 31.79 126.74 32.49 126.74 33.54V36.8H125.26V28.15H126.73Z" fill="#0088EA"/>
<path d="M135.35 28.62H136.9V35.53H141.07L140.88 36.8H135.35V28.62Z" fill="#0088EA"/>
<path d="M141.37 30.72H142.35V29.02H143.83V30.72H145.08V31.85H143.83V35.04C143.83 35.54 143.97 35.77 144.5 35.77C144.61 35.77 144.8 35.77 144.94 35.74V36.77C144.63 36.88 144.2 36.88 143.87 36.88C142.76 36.88 142.35 36.29 142.35 35.25V31.85H141.37V30.72Z" fill="#0088EA"/>
<path d="M151.62 28.15V35.11C151.62 35.67 151.62 36.23 151.63 36.8H150.21C150.18 36.62 150.15 36.26 150.14 36.09C149.84 36.62 149.28 36.94 148.34 36.94C146.78 36.94 145.8 35.69 145.8 33.81C145.8 31.94 146.85 30.57 148.57 30.57C149.52 30.57 150 30.92 150.14 31.22V28.15H151.62ZM147.33 33.78C147.33 35.06 147.88 35.75 148.75 35.75C150.01 35.75 150.2 34.76 150.2 33.73C150.2 32.59 150.01 31.78 148.81 31.78C147.85 31.78 147.33 32.52 147.33 33.78Z" fill="#0088EA"/>
<path d="M153.02 36.8001V34.8401H154.6V36.8001H153.02Z" fill="#0088EA"/>
</svg>
